<svg width="28" height="28" viewBox="0 0 28 28" fill="none" xmlns="http://www.w3.org/2000/svg">
<path d="M16.5 14.25H15.5625V15.1875H16.5V14.25ZM20.125 14.75L21.0424 14.9431L21.0625 14.8476V14.75H20.125ZM19.625 17.125L18.7076 16.9319L18.6875 17.0274V17.125H19.625ZM16.5 17.375V16.4375H15.5625V17.375H16.5ZM16.5 26.5V27.4375H17.4375V26.5H16.5ZM12.75 26.5H11.8125V27.4375H12.75V26.5ZM12.75 17.5H13.6875V16.5625H12.75V17.5ZM12.75 14.375V15.3125H13.6875V14.375H12.75ZM15.5625 10.625V14.25H17.4375V10.625H15.5625ZM16.5 15.1875H19.75V13.3125H16.5V15.1875ZM19.75 15.1875C19.6495 15.1875 19.5408 15.1606 19.4417 15.1028C19.3468 15.0474 19.2863 14.979 19.2512 14.9263C19.1882 14.8317 19.1875 14.7641 19.1875 14.75H21.0625C21.0625 14.4859 20.9993 14.1683 20.8113 13.8862C20.6048 13.5764 20.2387 13.3125 19.75 13.3125V15.1875ZM19.2076 14.5569L18.7076 16.9319L20.5424 17.3181L21.0424 14.9431L19.2076 14.5569ZM18.6875 17.125C18.6875 16.8415 18.8246 16.6616 18.8755 16.6028C18.9345 16.5347 18.9862 16.5025 19.002 16.493C19.0226 16.4806 19.0421 16.4717 19.0649 16.4641C19.0779 16.4598 19.1445 16.4375 19.25 16.4375V18.3125C19.543 18.3125 19.8055 18.1975 19.9667 18.1008C20.0607 18.0444 20.1827 17.9575 20.2924 17.8308C20.3942 17.7134 20.5625 17.471 20.5625 17.125H18.6875ZM19.25 16.4375H16.5V18.3125H19.25V16.4375ZM15.5625 17.375V26.5H17.4375V17.375H15.5625ZM16.5 25.5625H12.75V27.4375H16.5V25.5625ZM13.6875 26.5V17.5H11.8125V26.5H13.6875ZM12.75 16.5625H10.625V18.4375H12.75V16.5625ZM10.625 16.5625C10.6445 16.5625 10.8313 16.568 11.0067 16.7433C11.182 16.9187 11.1875 17.1055 11.1875 17.125H9.3125C9.3125 17.3945 9.38051 17.7688 9.68084 18.0692C9.98116 18.3695 10.3555 18.4375 10.625 18.4375V16.5625ZM11.1875 17.125V14.75H9.3125V17.125H11.1875ZM11.1875 14.75C11.1875 14.7695 11.182 14.9563 11.0067 15.1317C10.8313 15.307 10.6445 15.3125 10.625 15.3125V13.4375C10.3555 13.4375 9.98116 13.5055 9.68084 13.8058C9.38051 14.1062 9.3125 14.4805 9.3125 14.75H11.1875ZM10.625 15.3125H12.75V13.4375H10.625V15.3125ZM13.6875 14.375V10.25H11.8125V14.375H13.6875ZM13.6875 10.25C13.6875 8.64277 14.8928 7.4375 16.5 7.4375V5.5625C13.8572 5.5625 11.8125 7.60723 11.8125 10.25H13.6875ZM16.5 7.4375H19.875V5.5625H16.5V7.4375ZM19.875 7.4375C19.8555 7.4375 19.6687 7.43199 19.4933 7.25666C19.318 7.08134 19.3125 6.89451 19.3125 6.875H21.1875C21.1875 6.60549 21.1195 6.23116 20.8192 5.93084C20.5188 5.63051 20.1445 5.5625 19.875 5.5625V7.4375ZM19.3125 6.875V9.875H21.1875V6.875H19.3125ZM19.3125 9.875C19.3125 9.85549 19.318 9.66866 19.4933 9.49334C19.6687 9.31801 19.8555 9.3125 19.875 9.3125V11.1875C20.1445 11.1875 20.5188 11.1195 20.8192 10.8192C21.1195 10.5188 21.1875 10.1445 21.1875 9.875H19.3125ZM19.875 9.3125H16.875V11.1875H19.875V9.3125ZM16.875 9.3125C16.6055 9.3125 16.2312 9.38051 15.9308 9.68084C15.6305 9.98116 15.5625 10.3555 15.5625 10.625H17.4375C17.4375 10.6445 17.432 10.8313 17.2567 11.0067C17.0813 11.182 16.8945 11.1875 16.875 11.1875V9.3125ZM17.75 25.5625H10.25V27.4375H17.75V25.5625ZM10.25 25.5625C7.21747 25.5625 5.33858 24.9503 4.19416 23.8058C3.04975 22.6614 2.4375 20.7825 2.4375 17.75H0.5625C0.5625 20.9675 1.20025 23.4636 2.86834 25.1317C4.53642 26.7997 7.03253 27.4375 10.25 27.4375V25.5625ZM2.4375 17.75V10.25H0.5625V17.75H2.4375ZM2.4375 10.25C2.4375 7.21747 3.04975 5.33858 4.19416 4.19416C5.33858 3.04975 7.21747 2.4375 10.25 2.4375V0.5625C7.03253 0.5625 4.53642 1.20025 2.86834 2.86834C1.20025 4.53642 0.5625 7.03253 0.5625 10.25H2.4375ZM10.25 2.4375H17.75V0.5625H10.25V2.4375ZM17.75 2.4375C20.7825 2.4375 22.6614 3.04975 23.8058 4.19416C24.9503 5.33858 25.5625 7.21747 25.5625 10.25H27.4375C27.4375 7.03253 26.7997 4.53642 25.1317 2.86834C23.4636 1.20025 20.9675 0.5625 17.75 0.5625V2.4375ZM25.5625 10.25V17.75H27.4375V10.25H25.5625ZM25.5625 17.75C25.5625 20.7825 24.9503 22.6614 23.8058 23.8058C22.6614 24.9503 20.7825 25.5625 17.75 25.5625V27.4375C20.9675 27.4375 23.4636 26.7997 25.1317 25.1317C26.7997 23.4636 27.4375 20.9675 27.4375 17.75H25.5625Z" fill="white"/>
</svg>
