<svg width="28" height="28" viewBox="0 0 28 28" fill="none" xmlns="http://www.w3.org/2000/svg">
<path d="M21.045 7.75H21.06M10.25 26.5H17.75C24 26.5 26.5 24 26.5 17.75V10.25C26.5 4 24 1.5 17.75 1.5H10.25C4 1.5 1.5 4 1.5 10.25V17.75C1.5 24 4 26.5 10.25 26.5ZM14 18.375C14.5745 18.375 15.1434 18.2618 15.6742 18.042C16.205 17.8221 16.6873 17.4998 17.0936 17.0936C17.4998 16.6873 17.8221 16.205 18.042 15.6742C18.2618 15.1434 18.375 14.5745 18.375 14C18.375 13.4255 18.2618 12.8566 18.042 12.3258C17.8221 11.795 17.4998 11.3127 17.0936 10.9064C16.6873 10.5002 16.205 10.1779 15.6742 9.95803C15.1434 9.73816 14.5745 9.625 14 9.625C12.8397 9.625 11.7269 10.0859 10.9064 10.9064C10.0859 11.7269 9.625 12.8397 9.625 14C9.625 15.1603 10.0859 16.2731 10.9064 17.0936C11.7269 17.9141 12.8397 18.375 14 18.375Z" stroke="white" stroke-width="2.5" stroke-linecap="round" stroke-linejoin="round"/>
</svg>
