<svg width="26" height="24" viewBox="0 0 26 24" fill="none" xmlns="http://www.w3.org/2000/svg">
<path d="M24.6211 8.69342L24.6212 8.69346C24.7128 8.75458 24.7879 8.83738 24.8398 8.9345C24.8917 9.03162 24.9188 9.14006 24.9188 9.25019M24.6211 8.69342L24.7188 9.25006M24.6211 8.69342L13.3712 1.19346M24.6211 8.69342L1.08125 9.25006M24.9188 9.25019L24.7188 9.25006M24.9188 9.25019V9.25006H24.7188M24.9188 9.25019V21.4376C24.9188 21.8636 24.7495 22.2721 24.4483 22.5733C24.1471 22.8746 23.7385 23.0438 23.3125 23.0438H2.6875C2.2615 23.0438 1.85294 22.8746 1.55171 22.5733C1.25048 22.2721 1.08125 21.8636 1.08125 21.4376L1.08125 9.25019L1.28125 9.25006M24.7188 9.25006V21.4376C24.7188 21.8105 24.5706 22.1682 24.3069 22.4319C24.0431 22.6957 23.6855 22.8438 23.3125 22.8438H2.6875C2.31454 22.8438 1.95685 22.6957 1.69313 22.4319C1.42941 22.1682 1.28125 21.8105 1.28125 21.4376V9.25006M1.28125 9.25006H1.08125M1.28125 9.25006H1.08125M1.08125 9.25006C1.0812 9.13998 1.10833 9.03158 1.16022 8.9345C1.21214 8.83738 1.28723 8.75458 1.37884 8.69346L1.3789 8.69342L12.6288 1.19346M12.6288 1.19346L12.7398 1.35983L12.6289 1.19342L12.6288 1.19346ZM12.6288 1.19346C12.7387 1.12013 12.8679 1.08101 13 1.08101C13.1321 1.08101 13.2613 1.12013 13.3712 1.19346M13.3712 1.19346L13.2602 1.35983L13.3711 1.19342L13.3712 1.19346ZM2.41875 10.5478L9.79859 15.8117L2.41875 21.0233V10.5478ZM3.76969 21.7063L11.1674 16.4813H14.8326L22.2347 21.7063H3.76969ZM23.5812 21.0233L16.2014 15.8117L23.5812 10.5478V21.0233ZM11.1691 15.1438L2.92844 9.26848L13 2.55408L23.0773 9.26847L14.831 15.1438H11.1691Z" fill="white" stroke="white" stroke-width="0.4"/>
</svg>
