<svg width="68" height="70" viewBox="0 0 68 70" fill="none" xmlns="http://www.w3.org/2000/svg">
<path d="M66 29H34.6666V41.3333H53C52.6666 44.3333 50.6666 49 46.3333 52C43.6666 54 39.6666 55.3333 34.6666 55.3333C26 55.3333 18.3333 49.6666 15.6666 41.3333C15 39.3333 14.6666 37 14.6666 34.6666C14.6666 32.3333 15 30 15.6666 28C16 27.3333 16 26.6666 16.3333 26.3333C19.3333 19.3333 26.3333 14.3333 34.6666 14.3333C41 14.3333 45 17 47.6666 19.3333L57 9.99996C51.3333 4.99996 43.6666 1.66663 34.6666 1.66663C21.6666 1.66663 10.3333 8.99996 4.99998 20C2.66665 24.6666 1.33331 29.6666 1.33331 35C1.33331 40.3333 2.66665 45.3333 4.99998 50C10.3333 61 21.6666 68.3333 34.6666 68.3333C43.6666 68.3333 51.3333 65.3333 56.6666 60.3333C63 54.6666 66.6666 46 66.6666 35.6666C66.6666 33 66.3333 31 66 29Z" stroke="#808080" stroke-width="2" stroke-miterlimit="10" stroke-linecap="round" stroke-linejoin="round"/>
</svg>
