<svg width="64" height="59" viewBox="0 0 64 59" fill="none" xmlns="http://www.w3.org/2000/svg">
<path d="M1.30625 20.9593L31.3062 0.959332C31.5117 0.822284 31.7531 0.749146 32 0.749146C32.2469 0.749146 32.4883 0.822284 32.6938 0.959332L62.6938 20.9593M1.30625 20.9593C1.13502 21.0736 0.994648 21.2283 0.897609 21.4099C0.800571 21.5914 0.749867 21.7941 0.75 22V54.5C0.75 55.4945 1.14509 56.4483 1.84835 57.1516C2.55161 57.8549 3.50544 58.25 4.5 58.25H59.5C60.4946 58.25 61.4484 57.8549 62.1516 57.1516C62.8549 56.4483 63.25 55.4945 63.25 54.5V22C63.2501 21.7941 63.1994 21.5914 63.1024 21.4099C63.0054 21.2283 62.865 21.0736 62.6938 20.9593M1.30625 20.9593L1.86125 21.7912M1.30625 20.9593L1.86095 21.7914M62.6938 20.9593L62.1388 21.7912M62.6938 20.9593L62.1391 21.7914L62.1388 21.7912M62.1388 21.7912C62.173 21.814 62.2011 21.845 62.2205 21.8813C62.2399 21.9176 62.25 21.9581 62.25 21.9993V22V54.5C62.25 55.0697 62.0732 55.6212 61.75 56.0811M62.1388 21.7912L32.139 1.79138L32.1387 1.79118C32.0977 1.76377 32.0494 1.74915 32 1.74915C31.9506 1.74915 31.9023 1.76377 31.8613 1.79118L31.861 1.79138L1.86125 21.7912M61.75 56.0811V56.3554L61.6137 56.2591M61.75 56.0811C61.7071 56.1421 61.6617 56.2015 61.6137 56.2591M61.75 56.0811V54.425V24.425V22.4833L60.1693 23.6108L39.0349 38.6858L37.8879 39.504L39.0388 40.3168L60.1731 55.2418L61.6137 56.2591M1.86125 21.7912C1.86115 21.7912 1.86105 21.7913 1.86095 21.7914M1.86125 21.7912L1.86095 21.7914M1.86095 21.7914C1.82684 21.8142 1.79887 21.8451 1.77952 21.8813C1.76011 21.9176 1.74997 21.9581 1.75 21.9993L1.75 22L1.75 54.5C1.75 55.0697 1.92679 55.6212 2.25 56.0811M2.25 56.0811V56.3554L2.38628 56.2591M2.25 56.0811V54.425V24.425V22.4833L3.8307 23.6108L24.9651 38.6858L26.1121 39.504L24.9612 40.3168L3.82685 55.2418L2.38628 56.2591M2.25 56.0811C2.29287 56.1421 2.33832 56.2015 2.38628 56.2591M2.38628 56.2591C2.4396 56.3232 2.49603 56.3851 2.55546 56.4445C2.61619 56.5052 2.67946 56.5628 2.74503 56.6172M2.74503 56.6172L2.55704 56.75H2.91884M2.74503 56.6172L5.12934 54.9331L26.3668 39.9331L26.6262 39.75H26.9438H37.0562H37.3736L37.6329 39.933L58.8829 54.933L61.2613 56.6119M2.74503 56.6172C2.80133 56.6638 2.85932 56.7081 2.91884 56.75M2.91884 56.75C3.37877 57.0732 3.93027 57.25 4.5 57.25H59.5C60.0697 57.25 60.6212 57.0732 61.0812 56.75M2.91884 56.75H5.70625H58.3062H61.0812M61.0812 56.75H61.457L61.2613 56.6119M61.0812 56.75C61.1429 56.7065 61.2031 56.6605 61.2613 56.6119M61.2613 56.6119C61.3246 56.5591 61.3858 56.5033 61.4445 56.4445C61.504 56.3851 61.5604 56.3232 61.6137 56.2591M32.5545 2.67089L31.9998 2.30134L31.4453 2.67103L3.64842 21.2023L2.4418 22.0067L3.6226 22.8486L26.3663 39.0642L26.6269 39.25H26.9469H37.0531H37.3729L37.6334 39.0644L60.3928 22.8488L61.5746 22.0067L60.367 21.2021L32.5545 2.67089Z" fill="#808080" stroke="#808080" stroke-width="2"/>
</svg>
