<svg width="80" height="55" viewBox="0 0 80 55" fill="none" xmlns="http://www.w3.org/2000/svg">
<path d="M23.9156 0.275024C23.8864 0.275264 23.8572 0.276305 23.8281 0.278145L22.5812 0.331265C22.5614 0.332977 22.5416 0.335057 22.5218 0.337521C18.796 0.641489 15.3706 2.21143 12.7187 4.29378C12.7166 4.29482 12.7146 4.29586 12.7125 4.2969C10.1114 6.35859 8.12101 8.80352 6.55309 11.3125C4.97247 13.8208 3.77471 16.4312 2.81559 19.0625C2.81452 19.0677 2.81348 19.0729 2.81247 19.0782C0.943717 24.3562 -0.0630828 29.8378 -0.0812748 35.5063C-0.0813068 35.5125 -0.0813068 35.5188 -0.0812748 35.525C-0.0562348 38.4845 0.319157 41.6516 1.55935 44.825C2.78653 48.001 5.12292 51.3847 8.91561 53.3188H8.91873L8.92185 53.3219C10.807 54.2897 12.9064 54.7751 14.9375 54.7875C17.2374 54.8375 19.3275 54.1883 20.9781 53.3907C20.9833 53.3886 20.9885 53.3865 20.9937 53.3844C24.2286 51.7817 26.468 49.6291 28.3812 47.6032C28.3865 47.598 28.3917 47.5928 28.3969 47.5875C32.2134 43.4402 35.0101 38.9733 37.5594 34.5188V34.5157C38.4419 32.9809 39.2049 31.4057 40 29.8407C40.7955 31.4065 41.5575 32.9833 42.4406 34.5188C44.9897 38.9715 47.7864 43.4401 51.6031 47.5875C51.6083 47.5928 51.6135 47.598 51.6187 47.6032C53.5332 49.6303 55.7707 51.7831 59.0063 53.3844C59.0115 53.3865 59.0166 53.3886 59.0219 53.3907C60.6734 54.1887 62.7642 54.8357 65.0625 54.7876C67.0936 54.7751 69.193 54.2897 71.0781 53.3219L71.0844 53.3188C74.8738 51.3846 77.2096 48.0056 78.4375 44.8313C79.6798 41.6556 80.0562 38.4866 80.0813 35.525C80.0813 35.5188 80.0813 35.5125 80.0813 35.5063C80.063 29.839 79.0545 24.3558 77.1875 19.0782C77.1865 19.074 77.1855 19.0698 77.1844 19.0657C76.2271 16.4345 75.0301 13.8218 73.45 11.3157C71.8821 8.80666 69.8886 6.36173 67.2875 4.30003C67.2854 4.29794 67.2834 4.29586 67.2813 4.29378C64.6294 2.21143 61.204 0.641489 57.4781 0.337521C57.4594 0.336145 57.4407 0.335105 57.4219 0.334401L56.175 0.278145C56.1448 0.277297 56.1146 0.277297 56.0844 0.278145C55.6593 0.282833 55.1321 0.285361 54.5656 0.356273C53.5211 0.457377 52.5568 0.686032 51.675 0.953152C51.6708 0.954176 51.6667 0.955217 51.6625 0.956273C49.8384 1.52475 48.27 2.35979 46.9094 3.25315C46.9073 3.25523 46.9052 3.25731 46.9031 3.25941C44.2036 5.05794 42.1219 7.16405 40.3063 9.24066C40.1926 9.37027 40.1077 9.48715 40 9.61566C39.8932 9.48771 39.8094 9.36978 39.6969 9.24067L39.6938 9.23755C37.8775 7.16371 35.7993 5.05954 33.1 3.25943C33.0969 3.25733 33.0938 3.25525 33.0906 3.25317C31.7291 2.36027 30.1599 1.52478 28.3375 0.956288C28.3334 0.955232 28.3292 0.954193 28.325 0.953169C27.4421 0.686241 26.4777 0.454257 25.4344 0.353169C24.8693 0.282705 24.3398 0.279712 23.9156 0.275024ZM23.925 3.47814C24.3447 3.4831 24.7611 3.48982 25.0562 3.52814C25.0749 3.53056 25.0937 3.53264 25.1125 3.5344C25.8789 3.60714 26.6341 3.78626 27.3937 4.01565C27.3957 4.01626 27.3981 4.01504 27.4 4.01565C28.8635 4.47431 30.1533 5.15362 31.3344 5.92814C33.7024 7.50904 35.5638 9.37874 37.2875 11.3469C37.7688 11.8993 38.2275 12.501 38.7281 13.1313C38.7322 13.1365 38.7364 13.1417 38.7406 13.1469C38.7425 13.1493 38.7449 13.1508 38.7469 13.1532C38.7689 13.1799 38.7918 13.206 38.8156 13.2313C41.0755 15.7202 42.612 18.395 43.8281 20.4219C43.8913 20.5293 43.9668 20.6289 44.0531 20.7188C45.8206 23.9617 47.8271 27.602 49.6844 30.6063C49.6864 30.6105 49.6885 30.6146 49.6906 30.6188C52.2599 34.6935 55.0536 38.7087 58.2344 42.0375C58.2364 42.0386 58.2385 42.0396 58.2406 42.0407C59.9577 43.8212 62.3508 45.2094 65.4156 45.2094C66.4958 45.2094 67.5905 45.0274 68.5906 44.5C69.5889 43.9737 70.4563 43.0533 70.9031 41.8657C71.6428 39.9393 71.9242 37.7466 71.9156 35.5219C71.9156 35.5188 71.9156 35.5157 71.9156 35.5125C71.8721 30.9272 70.9737 26.2203 69.3938 21.8907L69.3906 21.8844C67.8327 17.5621 65.4855 13.4094 62.2 10.8157C62.1959 10.8125 62.1917 10.8094 62.1875 10.8063C60.5393 9.53339 58.7128 8.74213 56.7969 8.56567C56.7719 8.56403 56.7469 8.56299 56.7219 8.56254L56.1188 8.53442C56.0761 8.5327 56.0333 8.5327 55.9907 8.53442C55.9001 8.53762 55.6863 8.53858 55.4157 8.5688C54.9147 8.60422 54.4929 8.7088 54.125 8.80943C54.1167 8.81248 54.1083 8.8156 54.1 8.8188C53.1852 9.08486 52.2854 9.53023 51.3938 10.1H51.3907C49.6044 11.2449 47.939 12.8339 46.3907 14.5719C45.7984 15.2344 45.3187 15.8149 44.8532 16.3219C44.041 15.0108 43.2068 13.7295 41.9938 12.2376C42.2307 11.9413 42.4723 11.6241 42.7125 11.35L42.7157 11.3469C44.4393 9.37554 46.3025 7.50573 48.675 5.92506C49.8556 5.15066 51.1451 4.47026 52.6125 4.01256H52.6157C53.3709 3.78439 54.1248 3.61011 54.8907 3.53757C54.9094 3.53582 54.9282 3.53373 54.9469 3.53131C55.2511 3.49179 55.6765 3.48304 56.1094 3.47819H56.1188L57.2188 3.52819H57.2219C60.2013 3.77198 63.0984 5.08189 65.3032 6.81256H65.3063C67.5625 8.6025 69.3214 10.7464 70.7375 13.0126L70.7407 13.0157C72.1763 15.2916 73.2772 17.6919 74.175 20.1594C75.9249 25.1112 76.8621 30.2131 76.8813 35.4969V35.5063C76.8813 35.5095 76.8813 35.5125 76.8813 35.5157C76.8569 38.2218 76.5155 40.9659 75.4594 43.6657C75.4584 43.6678 75.4573 43.6698 75.4563 43.6719C74.4474 46.2828 72.5398 48.9861 69.625 50.4719H69.6219C68.2125 51.1965 66.5628 51.5825 65.0375 51.5907C65.0282 51.5906 65.0188 51.5906 65.0094 51.5907C63.3646 51.628 61.719 51.1389 60.4157 50.5094H60.4125C57.682 49.1552 55.7877 47.3567 53.9594 45.4219L53.9563 45.4188C50.3895 41.5423 47.7247 37.3024 45.2188 32.9251L45.2157 32.922C43.8688 30.5801 42.6312 28.1579 41.4532 25.7157C41.4495 25.7082 41.4444 25.7015 41.4407 25.6938C41.4207 25.6512 41.3988 25.6095 41.3751 25.5688C41.3723 25.5644 41.3684 25.5578 41.3657 25.5532C41.3606 25.5448 41.3553 25.5365 41.3501 25.5282C40.2109 23.616 38.694 21.0205 37.2001 19.1095C37.1613 19.032 37.1164 18.9578 37.0657 18.8876C37.0535 18.8713 37.0403 18.857 37.0282 18.8407C35.9208 17.3593 34.8101 15.915 33.6094 14.572C32.0611 12.8339 30.3957 11.2449 28.6094 10.1001H28.6063C27.7148 9.53026 26.8149 9.0849 25.9001 8.81883C25.8949 8.81672 25.8897 8.81464 25.8844 8.81258C25.5077 8.70738 25.0777 8.60029 24.5782 8.5657C24.3126 8.53669 24.0989 8.53765 24.0094 8.53445C23.9667 8.53274 23.924 8.53274 23.8813 8.53445L23.2782 8.56258C23.2531 8.56302 23.2281 8.56408 23.2032 8.5657C21.2874 8.74214 19.4601 9.53256 17.8125 10.8063C17.8084 10.8094 17.8042 10.8125 17.8001 10.8157C14.5121 13.4094 12.1643 17.5661 10.6063 21.8907C9.02636 26.2203 8.12791 30.9273 8.08444 35.5126C8.08442 35.5157 8.08442 35.5188 8.08444 35.5219C8.07761 37.7471 8.35906 39.9424 9.10007 41.8688C9.10077 41.8707 9.09935 41.8732 9.10007 41.8751C9.83698 43.8335 11.0149 45.3505 12.5469 46.1532H12.5501L12.5532 46.1563C13.2868 46.5414 14.1432 46.7597 15.0438 46.7782C15.8561 46.8251 16.6881 46.6344 17.5688 46.2469C17.5709 46.2449 17.573 46.2428 17.5751 46.2407C19.3952 45.4282 21.1412 43.9476 22.7438 42.2876C22.7459 42.2855 22.748 42.2834 22.7501 42.2813C25.9288 38.9512 28.7231 34.9401 31.2938 30.8657C31.297 30.8615 31.3001 30.8574 31.3032 30.8532C32.9005 28.2688 34.3807 25.5962 35.8657 22.9157C36.6556 24.1125 37.4295 25.2556 38.1532 26.4719C37.0869 28.6538 35.9901 30.8257 34.7845 32.9219L34.7813 32.9251C32.2756 37.3037 29.6107 41.5421 26.0438 45.4188L26.0407 45.4219C24.2129 47.3563 22.313 49.1562 19.5782 50.5126C18.2749 51.1411 16.6346 51.6292 14.9938 51.5907C14.9834 51.5906 14.973 51.5906 14.9626 51.5907C13.4375 51.5821 11.7877 51.1965 10.3782 50.4719L10.3751 50.4688C7.46121 48.9848 5.55277 46.283 4.54386 43.6719C4.54282 43.6698 4.54178 43.6677 4.54074 43.6657C3.48463 40.9659 3.14321 38.2217 3.11887 35.5157V35.4969C3.13802 30.2081 4.07185 25.1041 5.82513 20.15C5.82589 20.1478 5.82748 20.146 5.82825 20.1438C6.72682 17.6812 7.82981 15.2887 9.26261 13.0156C9.26365 13.0136 9.26469 13.0115 9.26573 13.0094C10.6834 10.7408 12.4404 8.59738 14.7001 6.80627C16.9047 5.07606 19.8025 3.76877 22.7813 3.52502H22.7845L23.925 3.47814ZM23.975 11.7344C24.0964 11.7376 24.2093 11.7406 24.2093 11.7406C24.255 11.7468 24.3009 11.751 24.3469 11.7531C24.456 11.7592 24.6993 11.8059 25.0062 11.8906C25.5218 12.0406 26.1887 12.3523 26.8844 12.7969C28.2876 13.6969 29.7952 15.0985 31.2219 16.7V16.7031C32.1098 17.6964 32.9796 18.8394 33.8562 19.9938C32.1471 23.1226 30.4216 26.188 28.5875 29.1563C26.0703 33.1458 23.3739 36.9956 20.4375 40.0719C19.0101 41.5491 17.4094 42.8092 16.2781 43.3156C15.6818 43.578 15.386 43.6051 15.2187 43.5938C15.1885 43.5919 15.1583 43.5908 15.1281 43.5906C14.6772 43.5854 14.3767 43.5005 14.0375 43.3219L14.0344 43.3188C13.4296 43.003 12.614 42.1349 12.0906 40.7375C12.0896 40.7333 12.0885 40.7292 12.0875 40.725C11.5478 39.3241 11.2794 37.4791 11.2844 35.5438V35.5375V35.5344C11.3252 31.3503 12.1581 26.9734 13.6156 22.9813C13.6167 22.9792 13.6177 22.9771 13.6187 22.975C15.042 19.0245 17.2479 15.3336 19.7781 13.3344C21.0317 12.3668 22.2492 11.8719 23.4906 11.7563L23.975 11.7344ZM56.025 11.7344L56.5093 11.7563C57.7486 11.8717 58.965 12.366 60.2187 13.3313C62.751 15.332 64.9574 19.0229 66.3812 22.975C66.3823 22.9771 66.3833 22.9792 66.3843 22.9813C67.843 26.9763 68.6759 31.3569 68.7156 35.5438C68.722 37.4783 68.4557 39.3216 67.9156 40.725C67.9135 40.7292 67.9114 40.7333 67.9093 40.7375C67.725 41.2297 67.4895 41.4617 67.0968 41.6688C66.7042 41.8758 66.1211 42.0094 65.4156 42.0094C63.2576 42.0094 61.8618 41.1837 60.55 39.825C57.6157 36.7542 54.9192 32.9094 52.4062 28.925L52.3968 28.9125C50.567 25.9517 48.5283 22.2568 46.7531 18.9969C47.3753 18.2568 47.8669 17.7224 48.7781 16.7031V16.7C50.2047 15.0985 51.7123 13.6969 53.1156 12.7969L53.1187 12.7938C53.8114 12.3515 54.4765 12.0438 54.9906 11.8938L54.9937 11.8907C55.3047 11.807 55.5529 11.7587 55.6531 11.7532C55.6991 11.751 55.745 11.7468 55.7906 11.7407C55.7906 11.7407 55.9035 11.7376 56.025 11.7344Z" fill="#808080"/>
</svg>
