<svg width="40" height="30" viewBox="0 0 40 30" fill="none" xmlns="http://www.w3.org/2000/svg">
<g clip-path="url(#clip0_39_12)">
<path fill-rule="evenodd" clip-rule="evenodd" d="M0 0H57V2.30862H0V0ZM0 4.61719H57V6.92581H0V4.61719ZM0 9.2285H57V11.5429H0V9.2285ZM0 13.8457H57V16.1543H0V13.8457ZM0 18.4629H57V20.7715H0V18.4629ZM0 23.0742H57V25.3828H0V23.0742ZM0 27.6914H57V30H0V27.6914Z" fill="#BD3D44"/>
<path fill-rule="evenodd" clip-rule="evenodd" d="M0 2.30862H57V4.61719H0V2.30862ZM0 6.92575H57V9.2285H0V6.92575ZM0 11.5371H57V13.8457H0V11.5371ZM0 16.1543H57V18.4629H0V16.1543ZM0 20.7715H57V23.0801H0V20.7715ZM0 25.3828H57V27.6914H0V25.3828Z" fill="white"/>
<path fill-rule="evenodd" clip-rule="evenodd" d="M0 0H22.7988V16.1543H0V0Z" fill="#192F5D"/>
<path fill-rule="evenodd" clip-rule="evenodd" d="M1.89841 0.691437L2.10934 1.33H2.77734L2.23822 1.72262L2.44334 2.36712L1.89841 1.96869L1.35934 2.36125L1.56441 1.72262L1.01953 1.33H1.69922L1.89841 0.691437ZM5.70116 0.691437L5.90622 1.33H6.58003L6.03509 1.72262L6.24022 2.36712L5.70116 1.96869L5.15622 2.36125L5.36128 1.72262L4.82222 1.33H5.49022L5.70116 0.691437ZM9.49803 0.691437L9.70897 1.33006H10.3711L9.83203 1.72269L10.037 2.36719L9.49216 1.96875L8.95309 2.36131L9.15816 1.72269L8.61322 1.33006H9.28709L9.49803 0.691437ZM13.3008 0.691437L13.5058 1.33006H14.1797L13.6347 1.72269L13.8457 2.36719L13.3007 1.96875L12.7558 2.36131L12.9668 1.72269L12.4218 1.33006H13.0898L13.3008 0.691437ZM17.0977 0.691437L17.3086 1.33006H17.9765L17.4375 1.72269L17.6425 2.36719L17.0976 1.96875L16.5585 2.36131L16.7637 1.72269L16.2246 1.33006H16.8925L17.0977 0.691437ZM20.9003 0.691437L21.1054 1.33006H21.7793L21.2343 1.72269L21.4453 2.36719L20.9003 1.96875L20.3554 2.36131L20.5663 1.72269L20.0215 1.33006H20.6953L20.9003 0.691437ZM3.80272 2.3085L4.00778 2.94725H4.68159L4.13666 3.33975L4.33591 3.9785L3.80853 3.58587L3.26366 3.97844L3.45697 3.33981L2.92966 2.94719H3.59766L3.80272 2.3085ZM7.59959 2.3085L7.81053 2.94725H8.47847L7.93353 3.33975L8.14453 3.9785L7.59953 3.58587L7.05466 3.97844L7.26559 3.33981L6.72066 2.94719H7.39447L7.59959 2.3085ZM11.4023 2.3085L11.6073 2.94725H12.2812L11.7363 3.33975L11.9413 3.9785L11.4023 3.58587L10.8574 3.97844L11.0625 3.33987L10.5234 2.94725H11.1914L11.4023 2.3085ZM15.1992 2.3085L15.4102 2.94725H16.0781L15.5332 3.33975L15.7441 3.9785L15.1992 3.58587L14.6601 3.97844L14.8652 3.33981L14.3203 2.94719H15L15.1992 2.3085ZM19.0019 2.3085L19.207 2.94725H19.8808L19.3359 3.33975L19.541 3.9785L19.0019 3.58587L18.457 3.97844L18.6621 3.33981L18.123 2.94719H18.791L19.0019 2.3085ZM1.89841 3.92L2.10934 4.57037H2.77734L2.23822 4.96294L2.44334 5.60162L1.89841 5.20319L1.35934 5.60162L1.56441 4.95706L1.01953 4.56456H1.69922L1.89841 3.92ZM5.70116 3.92L5.90622 4.56437H6.58003L6.03509 4.95694L6.24022 5.59569L5.70116 5.19719L5.15622 5.59562L5.36128 4.95112L4.82222 4.55856H5.49022L5.70116 3.92ZM9.49803 3.92L9.70897 4.5645H10.3711L9.83203 4.95706L10.037 5.59581L9.49216 5.19731L8.95309 5.59575L9.15816 4.95125L8.61322 4.55869H9.28709L9.49803 3.92ZM13.3008 3.92L13.5058 4.5645H14.1797L13.6347 4.95706L13.8457 5.59581L13.3007 5.19731L12.7558 5.59575L12.9668 4.95125L12.4218 4.55869H13.0898L13.3008 3.92ZM17.0977 3.92L17.3086 4.5645H17.9765L17.4375 4.957L17.6425 5.59575L17.0976 5.19725L16.5585 5.59569L16.7637 4.95119L16.2246 4.55862H16.8925L17.0977 3.92ZM20.9003 3.92L21.1054 4.5645H21.7793L21.2343 4.95706L21.4453 5.59581L20.9003 5.19731L20.3554 5.59575L20.5663 4.95125L20.0215 4.55869H20.6953L20.9003 3.92ZM3.80272 5.53712L4.00778 6.17581H4.68159L4.13666 6.56831L4.34178 7.21287L3.80272 6.81444L3.25778 7.207L3.46284 6.56837L2.92378 6.17581H3.59184L3.80272 5.53712ZM7.59959 5.53712L7.81053 6.17581H8.47847L7.93353 6.56831L8.14453 7.21287L7.59953 6.81444L7.05466 7.207L7.26559 6.56837L6.72066 6.17581H7.39447L7.59959 5.53712ZM11.4023 5.53712L11.6073 6.17581H12.2812L11.7363 6.56831L11.9413 7.21287L11.4023 6.81444L10.8574 7.207L11.0625 6.56837L10.5234 6.17581H11.1914L11.4023 5.53712ZM15.1992 5.53712L15.4102 6.17581H16.0781L15.539 6.56831L15.7441 7.21287L15.1992 6.81444L14.6601 7.207L14.8652 6.56837L14.3203 6.17581H15L15.1992 5.53712ZM19.0019 5.53712L19.207 6.17581H19.8808L19.3359 6.56831L19.541 7.21287L19.0019 6.81444L18.457 7.207L18.6621 6.56837L18.123 6.17581H18.791L19.0019 5.53712ZM1.89841 7.15431L2.10934 7.793H2.77734L2.23822 8.1855L2.44334 8.83006L1.89841 8.43162L1.35934 8.82419L1.56441 8.18556L1.01953 7.793H1.69922L1.89841 7.15431ZM5.70116 7.15431L5.90622 7.793H6.58003L6.03509 8.1855L6.24022 8.82425L5.70116 8.43162L5.15622 8.82419L5.36128 8.18556L4.82222 7.793H5.49022L5.70116 7.15431ZM9.49803 7.15431L9.70897 7.793H10.3711L9.83203 8.1855L10.037 8.83006L9.49216 8.43162L8.95309 8.82419L9.15816 8.18556L8.61322 7.793H9.28709L9.49803 7.15431ZM13.3008 7.15431L13.5058 7.793H14.1797L13.6347 8.1855L13.8457 8.83006L13.3007 8.43162L12.7558 8.82419L12.9668 8.18556L12.4218 7.793H13.0898L13.3008 7.15431ZM17.0977 7.15431L17.3086 7.793H17.9765L17.4375 8.1855L17.6425 8.83006L17.0976 8.43162L16.5585 8.82419L16.7637 8.18556L16.2246 7.793H16.8925L17.0977 7.15431ZM20.9003 7.15431L21.1054 7.793H21.7793L21.2343 8.1855L21.4453 8.83006L20.9003 8.43162L20.3554 8.82419L20.5663 8.18556L20.0215 7.793H20.6953L20.9003 7.15431ZM3.80272 8.7715L4.00778 9.41019H4.68159L4.13666 9.80269L4.34178 10.4414L3.80272 10.043L3.25778 10.4414L3.46284 9.79687L2.92378 9.40431H3.59184L3.80272 8.7715ZM7.59959 8.7715L7.81053 9.41019H8.47847L7.93353 9.80269L8.14453 10.4414L7.59953 10.043L7.05466 10.4414L7.26559 9.79687L6.72066 9.40431H7.39447L7.59959 8.7715ZM11.4023 8.7715L11.6073 9.41019H12.2812L11.7363 9.80269L11.9413 10.4414L11.4023 10.043L10.8574 10.4414L11.0625 9.79687L10.5234 9.40431H11.1914L11.4023 8.7715ZM15.1992 8.7715L15.4102 9.41019H16.0781L15.539 9.80269L15.7441 10.4414L15.1992 10.043L14.6601 10.4414L14.8652 9.79687L14.3203 9.40431H15L15.1992 8.7715ZM19.0019 8.7715L19.207 9.41019H19.8808L19.3359 9.80269L19.541 10.4414L19.0019 10.043L18.457 10.4414L18.6621 9.79687L18.123 9.40431H18.791L19.0019 8.7715ZM1.89841 10.3828L2.10934 11.0274H2.77734L2.23822 11.4199L2.44334 12.0527L1.89841 11.6602L1.35934 12.0527L1.56441 11.4141L1.01953 11.0215H1.69922L1.89841 10.3828ZM5.70116 10.3828L5.90622 11.0274H6.58003L6.03509 11.4199L6.24609 12.0527L5.70109 11.6602L5.15622 12.0527L5.36716 11.4141L4.82222 11.0215H5.49022L5.70116 10.3828ZM9.49803 10.3828L9.70897 11.0274H10.3711L9.83203 11.4199L10.037 12.0527L9.49216 11.6602L8.95309 12.0527L9.15816 11.4141L8.61322 11.0215H9.28709L9.49803 10.3828ZM13.3008 10.3828L13.5058 11.0274H14.1797L13.6347 11.4199L13.8457 12.0527L13.3007 11.6602L12.7558 12.0527L12.9668 11.4141L12.4218 11.0215H13.0898L13.3008 10.3828ZM17.0977 10.3828L17.3086 11.0274H17.9765L17.4375 11.4199L17.6425 12.0527L17.0976 11.6602L16.5585 12.0527L16.7637 11.4141L16.2246 11.0215H16.8925L17.0977 10.3828ZM20.9003 10.3828L21.1054 11.0274H21.7793L21.2343 11.4199L21.4453 12.0527L20.9003 11.6602L20.3554 12.0527L20.5663 11.4141L20.0215 11.0215H20.6953L20.9003 10.3828ZM3.80272 12L4.00778 12.6387H4.68159L4.13666 13.0312L4.34178 13.6758L3.80272 13.2774L3.25778 13.6699L3.46284 13.0312L2.92378 12.6387H3.59184L3.80272 12ZM7.59959 12L7.81053 12.6387H8.47847L7.93353 13.0312L8.14453 13.6758L7.59953 13.2774L7.05466 13.6699L7.26559 13.0312L6.72066 12.6387H7.39447L7.59959 12ZM11.4023 12L11.6073 12.6387H12.2812L11.7363 13.0312L11.9413 13.6758L11.4023 13.2774L10.8574 13.6699L11.0625 13.0312L10.5234 12.6387H11.1914L11.4023 12ZM15.1992 12L15.4102 12.6387H16.0781L15.539 13.0312L15.7441 13.6758L15.1992 13.2774L14.6601 13.6699L14.8652 13.0312L14.3203 12.6387H15L15.1992 12ZM19.0019 12L19.207 12.6387H19.8808L19.3359 13.0312L19.541 13.6758L19.0019 13.2774L18.457 13.6699L18.6621 13.0312L18.123 12.6387H18.791L19.0019 12ZM1.89841 13.6172L2.10934 14.2559H2.77734L2.23822 14.6484L2.44334 15.2871L1.89841 14.8946L1.35934 15.2871L1.56441 14.6426L1.01953 14.25H1.69922L1.89841 13.6172ZM5.70116 13.6172L5.90622 14.2559H6.58003L6.03509 14.6484L6.24609 15.2871L5.70109 14.8946L5.15622 15.2871L5.36716 14.6426L4.82222 14.25H5.49022L5.70116 13.6172ZM9.49803 13.6172L9.70897 14.2559H10.3711L9.84372 14.6484L10.0488 15.2871L9.50384 14.8946L8.96478 15.2871L9.16991 14.6426L8.62497 14.25H9.29878L9.49803 13.6172ZM13.3008 13.6172L13.5058 14.2559H14.1797L13.6347 14.6484L13.8457 15.2871L13.3007 14.8946L12.7558 15.2871L12.9668 14.6426L12.4218 14.25H13.0898L13.3008 13.6172ZM17.0977 13.6172L17.3086 14.2559H17.9765L17.4375 14.6484L17.6425 15.2871L17.0976 14.8946L16.5585 15.2871L16.7637 14.6426L16.2246 14.25H16.8925L17.0977 13.6172ZM20.9003 13.6172L21.1054 14.2559H21.7793L21.2343 14.6484L21.4453 15.2871L20.9003 14.8946L20.3554 15.2871L20.5663 14.6426L20.0215 14.25H20.6953L20.9003 13.6172Z" fill="white"/>
</g>
<defs>
<clipPath id="clip0_39_12">
<rect width="40" height="30" fill="white"/>
</clipPath>
</defs>
</svg>
